<svg width="1.5em" height="1.5em" viewBox="0 0 24 24" fill="none" xmlns="http://www.w3.org/2000/svg">
<path fill-rule="evenodd" clip-rule="evenodd" d="M10.0544 2.34434C11.1756 1.3888 12.8248 1.3888 13.9461 2.34434L15.2175 3.42788C15.3777 3.56437 15.5768 3.64685 15.7866 3.66359L17.4518 3.79648C18.9204 3.91367 20.0865 5.0798 20.2037 6.54833L20.3366 8.21357C20.3533 8.42334 20.4358 8.62248 20.5723 8.78264L21.6558 10.0541C22.6114 11.1754 22.6114 12.8245 21.6558 13.9458L20.5723 15.2173C20.4358 15.3774 20.3533 15.5766 20.3366 15.7863L20.2037 17.4516C20.0865 18.9201 18.9204 20.0863 17.4518 20.2034L15.7866 20.3363C15.5768 20.3531 15.3777 20.4356 15.2175 20.572L13.9461 21.6556C12.8248 22.6111 11.1756 22.6111 10.0544 21.6556L8.78289 20.572C8.62272 20.4356 8.42358 20.3531 8.21382 20.3363L6.54858 20.2034C5.08005 20.0863 3.91392 18.9201 3.79673 17.4516L3.66384 15.7863C3.6471 15.5766 3.56461 15.3774 3.42812 15.2173L2.34459 13.9458C1.38904 12.8245 1.38904 11.1754 2.34459 10.0541L3.42812 8.78264C3.56461 8.62248 3.6471 8.42334 3.66384 8.21357L3.79673 6.54833C3.91392 5.0798 5.08005 3.91367 6.54858 3.79648L8.21382 3.66359C8.42358 3.64685 8.62272 3.56437 8.78289 3.42788L10.0544 2.34434ZM12.6488 3.86657C12.2751 3.54806 11.7253 3.54806 11.3516 3.86657L10.0801 4.95011C9.59963 5.35958 9.00221 5.60704 8.37291 5.65726L6.70767 5.79014C6.21816 5.82921 5.82945 6.21792 5.79039 6.70743L5.6575 8.37267C5.60728 9.00197 5.35982 9.59939 4.95035 10.0799L3.86682 11.3513C3.5483 11.7251 3.5483 12.2748 3.86682 12.6486L4.95035 13.92C5.35982 14.4005 5.60728 14.998 5.6575 15.6273L5.79039 17.2925C5.82945 17.782 6.21816 18.1707 6.70767 18.2098L8.37291 18.3427C9.00221 18.3929 9.59963 18.6403 10.0801 19.0498L11.3516 20.1334C11.7253 20.4519 12.2751 20.4519 12.6488 20.1334L13.9203 19.0498C14.4008 18.6403 14.9982 18.3929 15.6275 18.3427L17.2927 18.2098C17.7822 18.1707 18.171 17.782 18.21 17.2925L18.3429 15.6273C18.3931 14.998 18.6406 14.4005 19.0501 13.92L20.1336 12.6486C20.4521 12.2748 20.4521 11.7251 20.1336 11.3513L19.0501 10.0799C18.6406 9.59939 18.3931 9.00197 18.3429 8.37267L18.21 6.70743C18.171 6.21792 17.7822 5.82921 17.2927 5.79014L15.6275 5.65726C14.9982 5.60704 14.4008 5.35958 13.9203 4.95011L12.6488 3.86657Z" fill="currentColor"/>
<path d="M11 9.5C11 10.3284 10.3284 11 9.5 11C8.67157 11 8 10.3284 8 9.5C8 8.67157 8.67157 8 9.5 8C10.3284 8 11 8.67157 11 9.5Z" fill="currentColor"/>
<path d="M16 14.5C16 15.3284 15.3284 16 14.5 16C13.6716 16 13 15.3284 13 14.5C13 13.6716 13.6716 13 14.5 13C15.3284 13 16 13.6716 16 14.5Z" fill="currentColor"/>
<path fill-rule="evenodd" clip-rule="evenodd" d="M15.1402 8.2318C15.5645 8.58537 15.6218 9.21593 15.2682 9.64021L10.2682 15.6402C9.91468 16.0645 9.28412 16.1218 8.85984 15.7682C8.43556 15.4147 8.37824 14.7841 8.7318 14.3598L13.7318 8.35984C14.0854 7.93556 14.7159 7.87824 15.1402 8.2318Z" fill="currentColor"/>
</svg>
